:SAMPLES-PER-SECOND 30
:FULLY-SPECIFIED
:DEGREES
48
root  2.60489 39.7859 -0.438687 40.9795 -82.6553 -45.0716
RightUpLeg  -0.285863 -2.0846 8.71221
RightLeg  8.12045 -14.0985 -1.66299
RightFoot  -3.22623 -0.166072 2.0286
RightToes  5.82063e-011 0 -3.6325e-017
Spine  3.03859 -1.76991 3.35883
Spine1  7.31661 -2.68094 4.6347
HEad  -0.128537 -10.1574 -2.11603
LeftShoulder1  2.50595 -5.5252 -21.3928
LeftArm  0.82151 5.98014 -53.862
LeftForeArm  10.6445 -6.28704 -14.3403
LeftHand  -0.422002 1.15876 11.5454
RightShoulder  1.655 2.91011 19.2864
RightArm  -5.00666 -1.5861 55.1206
RightForeArm  27.5446 -0.689381 15.196
RightHand  -0.24428 -3.80922 -17.2277
LeftUpLeg  -7.35574 -4.43441 9.61734
LeftLeg  20.8 5.59361 2.66751
LeftFoot  -8.53729 0.27416 -9.10155
LeftToes  3.99265e-010 -1.33173e-010 6.75004e-011
49
root  2.61088 39.7812 -0.440113 41.166 -82.6449 -45.3093
RightUpLeg  -0.269989 -2.14062 8.70512
RightLeg  8.18693 -14.0336 -1.60345
RightFoot  -3.27892 -0.164024 1.99683
RightToes  5.82063e-011 0 -3.6325e-017
Spine  3.11332 -1.74979 3.32539
Spine1  7.29746 -2.66553 4.6754
HEad  -0.0921184 -9.98929 -2.23968
LeftShoulder1  2.51165 -5.55983 -21.3367
LeftArm  0.502635 6.04002 -53.9726
LeftForeArm  10.7609 -6.21152 -14.3292
LeftHand  -0.42997 0.970693 11.2811
RightShoulder  1.6529 2.92694 19.2689
RightArm  -4.91484 -1.56675 55.1993
RightForeArm  27.2594 -0.49822 15.1996
RightHand  -0.219285 -3.9638 -17.0106
LeftUpLeg  -7.34409 -4.44923 9.64477
LeftLeg  20.8769 5.62105 2.68789
LeftFoot  -8.63702 0.267509 -9.13047
LeftToes  3.99265e-010 -1.33173e-010 6.75004e-011
50
root  2.61827 39.7752 -0.438378 41.6309 -82.6237 -45.8467
RightUpLeg  -0.231668 -2.1847 8.73023
RightLeg  8.24295 -13.9708 -1.54533
RightFoot  -3.29712 -0.163256 1.98491
RightToes  5.82063e-011 0 -3.6325e-017
Spine  3.32144 -1.74835 3.28658
Spine1  7.11553 -2.67224 4.76926
HEad  0.0707863 -9.52699 -2.47317
LeftShoulder1  2.51298 -5.56283 -21.3562
LeftArm  0.390605 6.20958 -54.0283
LeftForeArm  10.7676 -6.24524 -14.3059
LeftHand  -0.4356 0.852868 11.1426
RightShoulder  1.65155 2.9457 19.1902
RightArm  -4.66865 -1.57869 55.3399
RightForeArm  26.8573 -0.231212 15.2226
RightHand  -0.171865 -4.27282 -16.7157
LeftUpLeg  -7.33111 -4.46239 9.70422
LeftLeg  20.9943 5.65644 2.71638
LeftFoot  -8.69289 0.263373 -9.1301
LeftToes  3.99265e-010 -1.33173e-010 6.75004e-011
51
root  2.62503 39.7668 -0.434642 42.3003 -82.5906 -46.6034
RightUpLeg  -0.147297 -2.17503 8.8192
RightLeg  8.23367 -13.9455 -1.53614
RightFoot  -3.30843 -0.166794 2.0398
RightToes  5.82063e-011 0 -3.6325e-017
Spine  3.55282 -1.77823 3.31703
Spine1  6.95223 -2.69463 4.80074
HEad  0.116267 -8.85105 -2.61732
LeftShoulder1  2.50599 -5.50284 -21.4699
LeftArm  0.594618 6.35815 -53.9893
LeftForeArm  10.7196 -6.33706 -14.2996
LeftHand  -0.439377 0.934854 11.441
RightShoulder  1.6517 2.96008 19.1338
RightArm  -4.37752 -1.52832 55.5009
RightForeArm  26.7323 0.0299089 15.2332
RightHand  -0.158837 -4.36062 -16.6397
LeftUpLeg  -7.31575 -4.43308 9.80046
LeftLeg  21.1463 5.61076 2.71479
LeftFoot  -8.74745 0.259437 -9.13447
LeftToes  3.99265e-010 -1.33173e-010 6.75004e-011
52
root  2.63444 39.7565 -0.428822 43.2452 -82.5465 -47.6093
RightUpLeg  -0.0680782 -2.09853 8.97177
RightLeg  8.16643 -13.9706 -1.56763
RightFoot  -3.3143 -0.172657 2.13077
RightToes  5.82063e-011 0 -3.6325e-017
Spine  3.68018 -1.80542 3.45474
Spine1  6.97716 -2.69828 4.72265
HEad  -0.0548356 -8.06476 -2.5727
LeftShoulder1  2.49564 -5.43846 -21.5595
LeftArm  0.877097 6.38378 -53.9675
LeftForeArm  10.6089 -6.42649 -14.3059
LeftHand  -0.436 1.14167 11.8844
RightShoulder  1.65348 2.96946 19.1371
RightArm  -4.15738 -1.37576 55.638
RightForeArm  26.9229 0.269648 15.2148
RightHand  -0.186824 -4.14932 -16.4658
LeftUpLeg  -7.34516 -4.36183 9.93569
LeftLeg  21.3322 5.55016 2.71061
LeftFoot  -8.88039 0.250159 -9.16037
LeftToes  3.99265e-010 -1.33173e-010 6.75004e-011
53
root  2.65207 39.7493 -0.419642 44.267 -82.509 -48.6395
RightUpLeg  -0.0753975 -2.01316 9.10709
RightLeg  8.12928 -14.0023 -1.59297
RightFoot  -3.27683 -0.175835 2.18007
RightToes  5.82063e-011 0 -3.6325e-017
Spine  3.78159 -1.79367 3.6056
Spine1  7.03996 -2.66072 4.62309
HEad  -0.272537 -7.17997 -2.44787
LeftShoulder1  2.49928 -5.46407 -21.5182
LeftArm  1.00161 6.35781 -54.061
LeftForeArm  10.4251 -6.4729 -14.3142
LeftHand  -0.421922 1.31418 11.9662
RightShoulder  1.65605 2.98657 19.1236
RightArm  -3.85195 -1.24193 55.7438
RightForeArm  26.8688 0.582066 15.2072
RightHand  -0.200912 -4.01264 -16.0093
LeftUpLeg  -7.43506 -4.29397 10.0605
LeftLeg  21.4983 5.56625 2.73675
LeftFoot  -8.97696 0.242761 -9.15042
LeftToes  3.99265e-010 -1.33173e-010 6.75004e-011
